<svg xmlns="http://www.w3.org/2000/svg" viewBox="0 0 100 100" fill="none">
  <defs>
    <linearGradient id="grad1" x1="0%" y1="0%" x2="100%" y2="100%">
      <stop offset="0%" style="stop-color:#6366f1;stop-opacity:1">
        <animate attributeName="stop-color" values="#6366f1;#8b5cf6;#a78bfa;#8b5cf6;#6366f1" dur="4s" repeatCount="indefinite"/>
      </stop>
      <stop offset="100%" style="stop-color:#8b5cf6;stop-opacity:1">
        <animate attributeName="stop-color" values="#8b5cf6;#a78bfa;#c4b5fd;#a78bfa;#8b5cf6" dur="4s" repeatCount="indefinite"/>
      </stop>
    </linearGradient>
    <filter id="shadow">
      <feDropShadow dx="0" dy="2" stdDeviation="3" flood-opacity="0.3"/>
    </filter>
  </defs>
  <rect width="100" height="100" rx="22" fill="url(#grad1)">
    <animate attributeName="rx" values="22;24;22" dur="2s" repeatCount="indefinite"/>
  </rect>
  <g filter="url(#shadow)">
    <path d="M22 32C22 27.0294 26.0294 23 31 23H69C73.9706 23 78 27.0294 78 32V54C78 58.9706 73.9706 63 69 63H48L30 75V63H31C26.0294 63 22 58.9706 22 54V32Z" fill="white">
      <animateTransform attributeName="transform" type="scale" values="1;1.05;1" dur="2s" repeatCount="indefinite" additive="sum" attributeType="XML"/>
      <animate attributeName="opacity" values="1;0.95;1" dur="2s" repeatCount="indefinite"/>
    </path>
  </g>
  <circle cx="38" cy="43" r="3.5" fill="#6366f1">
    <animate attributeName="opacity" values="1;0.4;1" dur="1.5s" repeatCount="indefinite"/>
    <animate attributeName="r" values="3.5;4;3.5" dur="1.5s" repeatCount="indefinite"/>
  </circle>
  <circle cx="50" cy="43" r="3.5" fill="#6366f1">
    <animate attributeName="opacity" values="1;0.4;1" dur="1.5s" begin="0.2s" repeatCount="indefinite"/>
    <animate attributeName="r" values="3.5;4;3.5" dur="1.5s" begin="0.2s" repeatCount="indefinite"/>
  </circle>
  <circle cx="62" cy="43" r="3.5" fill="#6366f1">
    <animate attributeName="opacity" values="1;0.4;1" dur="1.5s" begin="0.4s" repeatCount="indefinite"/>
    <animate attributeName="r" values="3.5;4;3.5" dur="1.5s" begin="0.4s" repeatCount="indefinite"/>
  </circle>
  <path d="M68 70C68 68.8954 68.8954 68 70 68H72C73.1046 68 74 68.8954 74 70V72C74 73.1046 73.1046 74 72 74H70C68.8954 74 68 73.1046 68 72V70Z" fill="#10b981" opacity="0.9">
    <animate attributeName="opacity" values="0.9;0.6;0.9" dur="1s" repeatCount="indefinite"/>
  </path>
</svg>
